<svg width="48" height="49" viewBox="0 0 48 49" fill="none" xmlns="http://www.w3.org/2000/svg">
<rect y="0.625" width="48" height="48" rx="24" fill="#5570F1"/>
<path d="M19.25 24.6233L22.4167 27.79L28.75 21.4566M37.645 15.0985C37.321 15.1149 36.9948 15.1232 36.6667 15.1232C31.8004 15.1232 27.3614 13.2938 23.9999 10.2852C20.6384 13.2937 16.1995 15.1231 11.3333 15.1231C11.0052 15.1231 10.6791 15.1147 10.355 15.0983C9.96012 16.624 9.75 18.2241 9.75 19.8733C9.75 28.7265 15.8052 36.1655 24 38.2747C32.1948 36.1655 38.25 28.7265 38.25 19.8733C38.25 18.2242 38.0399 16.6242 37.645 15.0985Z" stroke="white" stroke-width="2" stroke-linecap="round" stroke-linejoin="round"/>
</svg>
