<svg width="136" height="31" viewBox="0 0 136 31" fill="none" xmlns="http://www.w3.org/2000/svg">
<circle opacity="0.6" cx="10.5" cy="12" r="10.5" fill="white"/>
<circle cx="10.5" cy="19" r="10.5" fill="white"/>
<path d="M30.0527 25V6.24751H37.2314C38.5866 6.24751 39.7128 6.46116 40.6102 6.88846C41.5136 7.30966 42.1881 7.88652 42.6338 8.61904C43.0855 9.35156 43.3113 10.1817 43.3113 11.1096C43.3113 11.8726 43.1648 12.5258 42.8718 13.0691C42.5788 13.6063 42.1851 14.0427 41.6906 14.3785C41.1962 14.7142 40.6437 14.9553 40.0333 15.1018V15.285C40.6987 15.3216 41.3366 15.5261 41.947 15.8984C42.5636 16.2647 43.0672 16.7836 43.4578 17.4551C43.8485 18.1265 44.0439 18.9384 44.0439 19.8907C44.0439 20.8613 43.8088 21.7342 43.3388 22.5094C42.8688 23.2786 42.1607 23.886 41.2145 24.3316C40.2683 24.7772 39.078 25 37.6435 25H30.0527ZM33.4498 22.1615H37.1032C38.3363 22.1615 39.2245 21.9265 39.7678 21.4564C40.3172 20.9803 40.5919 20.3699 40.5919 19.6251C40.5919 19.0696 40.4545 18.5691 40.1798 18.1235C39.9051 17.6718 39.5144 17.3177 39.0078 17.0613C38.5011 16.7988 37.8968 16.6676 37.1948 16.6676H33.4498V22.1615ZM33.4498 14.2228H36.8102C37.3962 14.2228 37.9243 14.116 38.3943 13.9023C38.8643 13.6826 39.2336 13.3743 39.5022 12.9775C39.7769 12.5746 39.9143 12.0985 39.9143 11.5491C39.9143 10.8227 39.6579 10.2245 39.1451 9.75444C38.6385 9.28441 37.8846 9.04939 36.8835 9.04939H33.4498V14.2228ZM50.1673 6.24751V25H46.8526V6.24751H50.1673ZM59.7106 25.2747C58.3371 25.2747 57.1468 24.9725 56.1396 24.3682C55.1324 23.7639 54.351 22.9184 53.7955 21.8319C53.2461 20.7453 52.9714 19.4756 52.9714 18.0228C52.9714 16.5699 53.2461 15.2972 53.7955 14.2045C54.351 13.1118 55.1324 12.2633 56.1396 11.659C57.1468 11.0547 58.3371 10.7525 59.7106 10.7525C61.0841 10.7525 62.2744 11.0547 63.2816 11.659C64.2889 12.2633 65.0672 13.1118 65.6165 14.2045C66.172 15.2972 66.4498 16.5699 66.4498 18.0228C66.4498 19.4756 66.172 20.7453 65.6165 21.8319C65.0672 22.9184 64.2889 23.7639 63.2816 24.3682C62.2744 24.9725 61.0841 25.2747 59.7106 25.2747ZM59.7289 22.6193C60.4736 22.6193 61.0963 22.4148 61.5968 22.0058C62.0974 21.5907 62.4698 21.0352 62.7139 20.3393C62.9642 19.6435 63.0893 18.8682 63.0893 18.0136C63.0893 17.1529 62.9642 16.3746 62.7139 15.6787C62.4698 14.9767 62.0974 14.4182 61.5968 14.0031C61.0963 13.588 60.4736 13.3804 59.7289 13.3804C58.9659 13.3804 58.331 13.588 57.8244 14.0031C57.3238 14.4182 56.9484 14.9767 56.6981 15.6787C56.4539 16.3746 56.3319 17.1529 56.3319 18.0136C56.3319 18.8682 56.4539 19.6435 56.6981 20.3393C56.9484 21.0352 57.3238 21.5907 57.8244 22.0058C58.331 22.4148 58.9659 22.6193 59.7289 22.6193ZM75.398 25.2747C73.994 25.2747 72.7884 24.9664 71.7811 24.3499C70.78 23.7334 70.0078 22.8818 69.4646 21.7952C68.9274 20.7026 68.6588 19.4451 68.6588 18.0228C68.6588 16.5943 68.9335 15.3338 69.4829 14.2411C70.0323 13.1423 70.8075 12.2877 71.8086 11.6773C72.8158 11.0608 74.0062 10.7525 75.3796 10.7525C76.5212 10.7525 77.5314 10.9631 78.4104 11.3843C79.2956 11.7994 80.0006 12.3885 80.5256 13.1515C81.0506 13.9084 81.3497 14.7936 81.4229 15.8069H78.2548C78.1266 15.1293 77.8214 14.5647 77.3391 14.1129C76.863 13.6551 76.2251 13.4262 75.4254 13.4262C74.7478 13.4262 74.1527 13.6093 73.6399 13.9756C73.1272 14.3357 72.7273 14.8546 72.4404 15.5322C72.1596 16.2098 72.0192 17.0216 72.0192 17.9678C72.0192 18.9262 72.1596 19.7503 72.4404 20.4401C72.7212 21.1238 73.1149 21.6518 73.6216 22.0241C74.1344 22.3904 74.7356 22.5735 75.4254 22.5735C75.9138 22.5735 76.3502 22.482 76.7348 22.2988C77.1255 22.1096 77.4521 21.838 77.7146 21.4839C77.977 21.1299 78.1571 20.6995 78.2548 20.1928H81.4229C81.3436 21.1878 81.0506 22.0699 80.5439 22.8391C80.0372 23.6021 79.3475 24.2003 78.4745 24.6337C77.6016 25.061 76.5761 25.2747 75.398 25.2747ZM87.1663 20.5866L87.1572 16.5852H87.6883L92.7426 10.9356H96.6158L90.3986 17.8579H89.7118L87.1663 20.5866ZM84.1447 25V6.24751H87.4593V25H84.1447ZM92.9716 25L88.3933 18.5996L90.6275 16.2647L96.9363 25H92.9716ZM98.8248 25V10.9356H102.139V25H98.8248ZM100.491 8.93952C99.9664 8.93952 99.5146 8.76554 99.1362 8.4176C98.7577 8.06355 98.5685 7.6393 98.5685 7.14485C98.5685 6.64429 98.7577 6.22004 99.1362 5.87209C99.5146 5.51804 99.9664 5.34102 100.491 5.34102C101.022 5.34102 101.474 5.51804 101.846 5.87209C102.225 6.22004 102.414 6.64429 102.414 7.14485C102.414 7.6393 102.225 8.06355 101.846 8.4176C101.474 8.76554 101.022 8.93952 100.491 8.93952ZM112.672 10.9356V13.4994H104.358V10.9356H112.672ZM106.436 25V9.60794C106.436 8.66177 106.632 7.87431 107.022 7.24557C107.419 6.61682 107.95 6.14679 108.615 5.83547C109.281 5.52415 110.019 5.36849 110.831 5.36849C111.405 5.36849 111.915 5.41427 112.36 5.50583C112.806 5.5974 113.136 5.67981 113.349 5.75306L112.69 8.31688C112.55 8.27415 112.373 8.23142 112.159 8.18868C111.945 8.13985 111.707 8.11543 111.445 8.11543C110.828 8.11543 110.392 8.26499 110.135 8.5641C109.885 8.85711 109.76 9.27831 109.76 9.8277V25H106.436ZM117.328 30.2741C116.876 30.2741 116.458 30.2375 116.073 30.1643C115.695 30.0971 115.393 30.0178 115.167 29.9262L115.936 27.3441C116.418 27.4845 116.849 27.5516 117.227 27.5455C117.606 27.5394 117.938 27.4204 118.225 27.1884C118.518 26.9625 118.765 26.5841 118.967 26.053L119.251 25.293L114.151 10.9356H117.667L120.908 21.5572H121.055L124.305 10.9356H127.83L122.199 26.7031C121.937 27.4478 121.589 28.0857 121.155 28.6168C120.722 29.154 120.191 29.563 119.562 29.8438C118.939 30.1307 118.195 30.2741 117.328 30.2741ZM131.285 25.2014C130.729 25.2014 130.253 25.0061 129.856 24.6154C129.459 24.2248 129.264 23.7486 129.27 23.187C129.264 22.6376 129.459 22.1676 129.856 21.7769C130.253 21.3862 130.729 21.1909 131.285 21.1909C131.822 21.1909 132.289 21.3862 132.686 21.7769C133.088 22.1676 133.293 22.6376 133.299 23.187C133.293 23.5594 133.195 23.8982 133.006 24.2034C132.823 24.5086 132.579 24.7528 132.273 24.9359C131.974 25.1129 131.645 25.2014 131.285 25.2014Z" fill="white"/>
</svg>
