<svg width="22" height="22" viewBox="0 0 22 22" fill="none" xmlns="http://www.w3.org/2000/svg">
<path d="M9.84366 1.77952C10.2685 0.471856 12.1185 0.471857 12.5434 1.77952L14.0615 6.45175C14.2515 7.03656 14.7965 7.4325 15.4114 7.4325H20.3241C21.6991 7.4325 22.2707 9.19195 21.1584 10.0001L17.1839 12.8877C16.6865 13.2492 16.4783 13.8898 16.6683 14.4746L18.1864 19.1468C18.6113 20.4545 17.1146 21.5419 16.0023 20.7337L12.0278 17.8461C11.5304 17.4847 10.8567 17.4847 10.3593 17.8461L6.38484 20.7337C5.27247 21.5419 3.77579 20.4545 4.20068 19.1468L5.71877 14.4746C5.90879 13.8898 5.70063 13.2492 5.20316 12.8877L1.22873 10.0001C0.116362 9.19195 0.688044 7.4325 2.06301 7.4325H6.97568C7.59058 7.4325 8.13555 7.03656 8.32556 6.45175L9.84366 1.77952Z" fill="#F2A340"/>
</svg>
